<svg xmlns="http://www.w3.org/2000/svg" width="512" height="512" viewBox="0 0 512 512" fill="none"><metadata><rdf:RDF xmlns:rdf="http://www.w3.org/1999/02/22-rdf-syntax-ns#" xmlns:dc="http://purl.org/dc/elements/1.1/"><rdf:Description><dc:creator>RealFaviconGenerator</dc:creator><dc:source>https://realfavicongenerator.net</dc:source></rdf:Description></rdf:RDF></metadata><circle cx="256" cy="256" r="256" fill="#E3D5C9"></circle><path d="M354.674 395.649H349.085C349.085 395.589 349.058 395.53 349.046 395.475L348.893 394.792C348.795 394.343 348.689 393.898 348.58 393.457C348.532 393.249 348.482 393.042 348.431 392.834C348.286 392.252 348.133 391.67 347.976 391.087L347.929 390.921C347.756 390.29 347.576 389.662 347.388 389.037L347.2 388.432C347.071 388.002 346.933 387.575 346.808 387.149C346.734 386.915 346.655 386.685 346.581 386.456C346.444 386.044 346.302 385.632 346.157 385.224C346.083 385.009 346.005 384.79 345.93 384.579C345.747 384.067 345.559 383.559 345.366 383.055C345.323 382.947 345.287 382.844 345.244 382.736C345.017 382.143 344.778 381.553 344.535 380.963C344.449 380.748 344.358 380.537 344.268 380.325C344.104 379.955 343.939 379.547 343.771 379.161L343.453 378.445C343.289 378.074 343.12 377.704 342.948 377.333C342.842 377.103 342.732 376.869 342.622 376.639C342.422 376.213 342.23 375.79 342.007 375.371C341.925 375.211 341.85 375.048 341.768 374.885C341.49 374.333 341.203 373.773 340.913 373.239L340.522 372.545L339.969 371.54L339.538 370.798C339.358 370.487 339.177 370.175 338.993 369.864C338.848 369.612 338.699 369.36 338.55 369.122C338.346 368.785 338.158 368.455 337.935 368.121L337.37 367.216C337.104 366.801 336.837 366.382 336.563 365.97C336.391 365.71 336.218 365.455 336.042 365.199C335.865 364.943 335.673 364.65 335.485 364.379C335.297 364.108 335.093 363.838 334.921 363.571C334.748 363.304 334.56 363.063 334.376 362.829C334.192 362.595 333.984 362.284 333.784 362.013L333.232 361.271C332.84 360.778 332.479 360.285 332.095 359.788L331.558 359.109C331.331 358.824 331.096 358.542 330.864 358.26L330.347 357.637C330.108 357.352 329.865 357.07 329.622 356.784L329.113 356.198L328.352 355.338L327.902 354.841C326.965 353.814 326.005 352.801 325.021 351.815L324.59 351.381L323.688 350.502L323.245 350.079C322.932 349.779 322.618 349.482 322.301 349.189L321.976 348.893C320.866 347.873 319.726 346.879 318.566 345.926L318.248 345.662C317.89 345.366 317.53 345.073 317.167 344.784L316.806 344.494C316.414 344.198 316.058 343.905 315.677 343.612L315.485 343.467C314.204 342.488 312.891 341.535 311.566 340.619L311.382 340.489C310.963 340.204 310.543 339.922 310.12 339.644L309.842 339.462C309.411 339.176 308.975 338.898 308.54 338.62L308.466 338.576C307.024 337.663 305.554 336.789 304.057 335.954L303.998 335.917C303.524 335.653 303.05 335.397 302.575 335.142L302.368 335.03C299.844 333.683 297.252 332.447 294.592 331.322L294.427 331.251C293.726 330.955 293.02 330.669 292.307 330.387H306.334C308.619 330.387 310.473 327.899 310.473 324.825C310.473 321.75 308.619 319.262 306.334 319.262H302.156C302.415 318.639 302.701 317.934 303.01 317.141C306.961 314.812 313.914 309.85 320.812 300.734L320.867 300.664C321.389 299.982 321.902 299.276 322.407 298.546L322.509 298.402C323.01 297.686 323.512 296.948 324.006 296.177L324.139 295.973C324.374 295.602 324.609 295.231 324.845 294.86C324.845 294.86 324.845 294.831 324.872 294.812C325.115 294.441 325.354 294.033 325.593 293.636L325.746 293.381C325.95 293.039 326.157 292.691 326.357 292.339C326.397 292.275 326.436 292.212 326.471 292.146C326.702 291.745 326.933 291.337 327.161 290.926L327.318 290.64C327.506 290.299 327.69 289.954 327.874 289.605C327.929 289.509 327.984 289.409 328.035 289.309C328.254 288.89 328.474 288.467 328.693 288.037L328.846 287.736C329.019 287.388 329.195 287.032 329.367 286.676L329.555 286.305C329.767 285.867 329.975 285.422 330.183 284.974L330.312 284.688C330.484 284.317 330.653 283.946 330.821 283.575L331.021 283.13C331.217 282.682 331.413 282.229 331.601 281.773C331.637 281.692 331.672 281.606 331.703 281.525C331.88 281.106 332.052 280.679 332.224 280.249L332.42 279.759C332.581 279.351 332.742 278.94 332.899 278.528L333.016 278.217C333.2 277.727 333.381 277.227 333.561 276.733L333.749 276.207C333.89 275.814 334.027 275.413 334.165 275.013C334.215 274.864 334.266 274.716 334.313 274.568C334.486 274.056 334.658 273.533 334.827 273.01C334.882 272.828 334.941 272.639 334.995 272.469L335.387 271.249C335.438 271.07 335.493 270.878 335.544 270.718C335.705 270.18 335.865 269.632 336.018 269.079C336.069 268.905 336.116 268.727 336.163 268.549C336.281 268.122 336.398 267.696 336.512 267.262C336.563 267.065 336.614 266.869 336.669 266.672C336.814 266.101 336.959 265.526 337.1 264.944L337.218 264.458C337.327 263.995 337.437 263.527 337.543 263.056L337.684 262.426C337.817 261.822 337.95 261.217 338.076 260.601C338.103 260.483 338.127 260.36 338.15 260.231C338.26 259.7 338.366 259.163 338.468 258.625C338.511 258.406 338.55 258.187 338.593 257.968C338.695 257.416 338.793 256.856 338.891 256.303C338.911 256.185 338.934 256.07 338.954 255.955C339.064 255.302 339.171 254.644 339.275 253.982C339.311 253.759 339.346 253.537 339.377 253.311C339.459 252.773 339.538 252.232 339.616 251.683L339.687 251.178C339.781 250.496 339.871 249.81 339.957 249.113C339.985 248.894 340.008 248.675 340.036 248.453C340.103 247.899 340.166 247.342 340.224 246.784C340.247 246.583 340.271 246.387 340.29 246.187C340.366 245.47 340.437 244.747 340.502 244.017C340.502 243.813 340.537 243.609 340.553 243.402C340.604 242.816 340.655 242.226 340.698 241.633C340.698 241.414 340.733 241.195 340.749 240.976C340.804 240.22 340.855 239.458 340.902 238.692C340.902 238.518 340.902 238.321 340.929 238.165C340.964 237.527 341 236.886 341.027 236.241C341.027 236.007 341.027 235.773 341.058 235.54C341.09 234.742 341.121 233.941 341.145 233.129C341.145 233.018 341.145 232.903 341.145 232.788C341.166 232.066 341.181 231.337 341.192 230.6C341.192 230.359 341.192 230.118 341.192 229.877C341.192 229.086 341.192 228.29 341.192 227.489V227.303C341.192 226.45 341.192 225.586 341.192 224.707V223.966C341.192 223.224 341.16 222.445 341.141 221.674V221.255C341.113 220.365 341.078 219.464 341.043 218.559C341.043 218.325 341.019 218.088 341.011 217.854C340.977 217.093 340.938 216.326 340.894 215.555C340.894 215.366 340.894 215.184 340.862 214.98C340.808 214.053 340.748 213.118 340.682 212.176L340.635 211.52C340.576 210.734 340.518 209.944 340.451 209.147C340.451 208.917 340.416 208.687 340.396 208.457C340.314 207.493 340.224 206.517 340.13 205.538C340.13 205.353 340.09 205.167 340.075 204.978C339.992 204.144 339.902 203.302 339.812 202.453C339.785 202.197 339.757 201.945 339.726 201.689C339.616 200.68 339.499 199.668 339.373 198.641C339.373 198.514 339.338 198.388 339.322 198.27C339.21 197.35 339.091 196.425 338.966 195.496C338.926 195.221 338.891 194.947 338.852 194.673C338.706 193.619 338.555 192.557 338.401 191.487C322.724 85.8922 211.629 103.029 211.629 103.029L215.188 125.717L148 192.878L150.936 218.811L176.387 233.645C177.522 230.916 178.979 228.317 180.73 225.898C197.151 207.975 229.011 193.905 238.131 190.986C239.957 190.404 240.996 190.111 240.996 190.111C197.371 243.535 202.333 304.74 204.277 319.329C202.254 319.7 200.69 322.01 200.69 324.828C200.69 327.899 202.544 330.391 204.829 330.391H218.856C195.527 339.631 177.009 357.229 167.345 379.343C167.334 379.373 167.321 379.403 167.306 379.432C166.593 381.073 165.929 382.738 165.315 384.427C165.316 384.444 165.316 384.462 165.315 384.479C165.151 384.939 164.99 385.399 164.833 385.862C164.774 386.029 164.716 386.196 164.661 386.367C164.52 386.782 164.389 387.201 164.269 387.624C164.198 387.839 164.132 388.058 164.065 388.273C163.94 388.669 163.818 389.07 163.701 389.47L163.489 390.212C163.379 390.583 163.269 390.98 163.168 391.366C163.093 391.64 163.023 391.911 162.952 392.185C162.858 392.556 162.76 392.927 162.67 393.298C162.58 393.669 162.493 394.039 162.407 394.432C162.321 394.826 162.211 395.285 162.117 395.716H156.524C155.449 395.693 154.38 395.874 153.379 396.248C152.379 396.622 151.467 397.181 150.698 397.893C149.929 398.605 149.318 399.455 148.901 400.393C148.484 401.331 148.269 402.339 148.269 403.357C148.269 404.375 148.484 405.382 148.901 406.321C149.318 407.259 149.929 408.109 150.698 408.821C151.467 409.532 152.379 410.092 153.379 410.466C154.38 410.839 155.449 411.021 156.524 410.998H354.745C355.82 411.021 356.889 410.839 357.89 410.466C358.89 410.092 359.802 409.532 360.571 408.821C361.34 408.109 361.951 407.259 362.368 406.321C362.785 405.382 363 404.375 363 403.357C363 402.339 362.785 401.331 362.368 400.393C361.951 399.455 361.34 398.605 360.571 397.893C359.802 397.181 358.89 396.622 357.89 396.248C356.889 395.874 355.82 395.693 354.745 395.716L354.674 395.649Z" fill="#595653"></path></svg>